REM DIRINDEX 1\2\4,1\2\5,1\2\6,1\3\7,1\3\8,1\3\9,1\3\10
REM DIRNAME folder01,folder02,folder03,folder04,folder05,folder06,folder07,folder08,folder09,folder10
TITLE ""
FILE "b_139.mp3" MP3
  TRACK 01 AUDIO
    TITLE "0:"
    INDEX 01 00:00:00
  TRACK 02 AUDIO
    TITLE "7:cjc057_08617"
    INDEX 01 00:00:15
  TRACK 03 AUDIO
    TITLE "0:"
    INDEX 01 00:01:34
  TRACK 04 AUDIO
    TITLE "8:cjc057_08618"
    INDEX 01 00:01:60
  TRACK 05 AUDIO
    TITLE "0:"
    INDEX 01 00:03:74
  TRACK 06 AUDIO
    TITLE "7:cjc057_08619"
    INDEX 01 00:04:74
  TRACK 07 AUDIO
    TITLE "0:"
    INDEX 01 00:06:43
  TRACK 08 AUDIO
    TITLE "8:cjc057_08620"
    INDEX 01 00:06:73
  TRACK 09 AUDIO
    TITLE "0:"
    INDEX 01 00:09:28
  TRACK 10 AUDIO
    TITLE "7:cjc057_08621"
    INDEX 01 00:10:31
  TRACK 11 AUDIO
    TITLE "0:"
    INDEX 01 00:11:62
  TRACK 12 AUDIO
    TITLE "8:cjc057_08622"
    INDEX 01 00:12:14
  TRACK 13 AUDIO
    TITLE "0:"
    INDEX 01 00:13:43
  TRACK 14 AUDIO
    TITLE "7:cjc057_08623"
    INDEX 01 00:14:49
  TRACK 15 AUDIO
    TITLE "0:"
    INDEX 01 00:16:02
  TRACK 16 AUDIO
    TITLE "8:cjc057_08624"
    INDEX 01 00:16:28
  TRACK 17 AUDIO
    TITLE "0:"
    INDEX 01 00:19:18
  TRACK 18 AUDIO
    TITLE "7:cjc057_08625"
    INDEX 01 00:20:18
  TRACK 19 AUDIO
    TITLE "0:"
    INDEX 01 00:21:41
  TRACK 20 AUDIO
    TITLE "8:cjc057_08626"
    INDEX 01 00:21:68
  TRACK 21 AUDIO
    TITLE "0:"
    INDEX 01 00:25:07
  TRACK 22 AUDIO
    TITLE "7:cjc057_08627"
    INDEX 01 00:26:11
  TRACK 23 AUDIO
    TITLE "0:"
    INDEX 01 00:27:39
  TRACK 24 AUDIO
    TITLE "8:cjc057_08628"
    INDEX 01 00:27:69
  TRACK 25 AUDIO
    TITLE "0:"
    INDEX 01 00:32:11
  TRACK 26 AUDIO
    TITLE "7:cjc057_08629"
    INDEX 01 00:33:13
  TRACK 27 AUDIO
    TITLE "0:"
    INDEX 01 00:34:22
  TRACK 28 AUDIO
    TITLE "8:cjc057_08630"
    INDEX 01 00:34:49
  TRACK 29 AUDIO
    TITLE "0:"
    INDEX 01 00:38:47
  TRACK 30 AUDIO
    TITLE "7:cjc057_08631"
    INDEX 01 00:39:47
  TRACK 31 AUDIO
    TITLE "0:"
    INDEX 01 00:40:62
  TRACK 32 AUDIO
    TITLE "8:cjc057_08632"
    INDEX 01 00:41:14
  TRACK 33 AUDIO
    TITLE "0:"
    INDEX 01 00:43:25
  TRACK 34 AUDIO
    TITLE "7:cjc057_08633"
    INDEX 01 00:44:28
  TRACK 35 AUDIO
    TITLE "0:"
    INDEX 01 00:45:49
  TRACK 36 AUDIO
    TITLE "8:cjc057_08634"
    INDEX 01 00:46:04
  TRACK 37 AUDIO
    TITLE "0:"
    INDEX 01 00:48:34
  TRACK 38 AUDIO
    TITLE "7:cjc057_08635"
    INDEX 01 00:49:35
  TRACK 39 AUDIO
    TITLE "0:"
    INDEX 01 00:50:64
  TRACK 40 AUDIO
    TITLE "8:cjc057_08636"
    INDEX 01 00:51:16
  TRACK 41 AUDIO
    TITLE "0:"
    INDEX 01 00:53:62
  TRACK 42 AUDIO
    TITLE "7:cjc057_08637"
    INDEX 01 00:54:66
  TRACK 43 AUDIO
    TITLE "0:"
    INDEX 01 00:56:16
  TRACK 44 AUDIO
    TITLE "8:cjc057_08638"
    INDEX 01 00:56:45
  TRACK 45 AUDIO
    TITLE "0:"
    INDEX 01 00:58:26
  TRACK 46 AUDIO
    TITLE "7:cjc057_08639"
    INDEX 01 00:59:28
  TRACK 47 AUDIO
    TITLE "0:"
    INDEX 01 01:00:70
  TRACK 48 AUDIO
    TITLE "8:cjc057_08640"
    INDEX 01 01:01:23
  TRACK 49 AUDIO
    TITLE "0:"
    INDEX 01 01:02:20
  TRACK 50 AUDIO
    TITLE "7:cjc057_08641"
    INDEX 01 01:03:22
  TRACK 51 AUDIO
    TITLE "0:"
    INDEX 01 01:04:43
  TRACK 52 AUDIO
    TITLE "8:cjc057_08642"
    INDEX 01 01:04:70
  TRACK 53 AUDIO
    TITLE "0:"
    INDEX 01 01:06:34
  TRACK 54 AUDIO
    TITLE "7:cjc057_08643"
    INDEX 01 01:07:37
  TRACK 55 AUDIO
    TITLE "0:"
    INDEX 01 01:08:68
  TRACK 56 AUDIO
    TITLE "8:cjc057_08644"
    INDEX 01 01:09:20
  TRACK 57 AUDIO
    TITLE "0:"
    INDEX 01 01:11:13
  TRACK 58 AUDIO
    TITLE "7:cjc057_08645"
    INDEX 01 01:12:15
  TRACK 59 AUDIO
    TITLE "0:"
    INDEX 01 01:13:34
  TRACK 60 AUDIO
    TITLE "8:cjc057_08646"
    INDEX 01 01:13:63
  TRACK 61 AUDIO
    TITLE "0:"
    INDEX 01 01:15:05
  TRACK 62 AUDIO
    TITLE "7:cjc057_08647"
    INDEX 01 01:16:03
  TRACK 63 AUDIO
    TITLE "0:"
    INDEX 01 01:17:26
  TRACK 64 AUDIO
    TITLE "8:cjc057_08648"
    INDEX 01 01:17:53
  TRACK 65 AUDIO
    TITLE "0:"
    INDEX 01 01:18:74
  TRACK 66 AUDIO
    TITLE "7:cjc057_08649"
    INDEX 01 01:20:02
  TRACK 67 AUDIO
    TITLE "0:"
    INDEX 01 01:21:14
  TRACK 68 AUDIO
    TITLE "8:cjc057_08650"
    INDEX 01 01:21:37
  TRACK 69 AUDIO
    TITLE "0:"
    INDEX 01 01:22:31
  TRACK 70 AUDIO
    TITLE "7:cjc057_08651"
    INDEX 01 01:23:34
  TRACK 71 AUDIO
    TITLE "0:"
    INDEX 01 01:24:53
  TRACK 72 AUDIO
    TITLE "8:cjc057_08652"
    INDEX 01 01:25:06
  TRACK 73 AUDIO
    TITLE "0:"
    INDEX 01 01:26:05
  TRACK 74 AUDIO
    TITLE "7:cjc057_08653"
    INDEX 01 01:27:08
  TRACK 75 AUDIO
    TITLE "0:"
    INDEX 01 01:28:35
  TRACK 76 AUDIO
    TITLE "8:cjc057_08654"
    INDEX 01 01:28:63
  TRACK 77 AUDIO
    TITLE "0:"
    INDEX 01 01:30:01
  TRACK 78 AUDIO
    TITLE "7:cjc057_08655"
    INDEX 01 01:31:02
  TRACK 79 AUDIO
    TITLE "0:"
    INDEX 01 01:32:13
  TRACK 80 AUDIO
    TITLE "8:cjc057_08656"
    INDEX 01 01:32:39
  TRACK 81 AUDIO
    TITLE "0:"
    INDEX 01 01:33:52
  TRACK 82 AUDIO
    TITLE "7:cjc057_08657"
    INDEX 01 01:34:57
  TRACK 83 AUDIO
    TITLE "0:"
    INDEX 01 01:36:11
  TRACK 84 AUDIO
    TITLE "8:cjc057_08658"
    INDEX 01 01:36:39
  TRACK 85 AUDIO
    TITLE "0:"
    INDEX 01 01:39:14
  TRACK 86 AUDIO
    TITLE "7:cjc057_08659"
    INDEX 01 01:40:17
  TRACK 87 AUDIO
    TITLE "0:"
    INDEX 01 01:41:38
  TRACK 88 AUDIO
    TITLE "8:cjc057_08660"
    INDEX 01 01:41:65
  TRACK 89 AUDIO
    TITLE "0:"
    INDEX 01 01:44:13
  TRACK 90 AUDIO
    TITLE "7:cjc057_08661"
    INDEX 01 01:45:16
  TRACK 91 AUDIO
    TITLE "0:"
    INDEX 01 01:46:29
  TRACK 92 AUDIO
    TITLE "8:cjc057_08662"
    INDEX 01 01:46:57
  TRACK 93 AUDIO
    TITLE "0:"
    INDEX 01 01:48:07
  TRACK 94 AUDIO
    TITLE "7:cjc057_08663"
    INDEX 01 01:49:08
  TRACK 95 AUDIO
    TITLE "0:"
    INDEX 01 01:50:19
  TRACK 96 AUDIO
    TITLE "8:cjc057_08664"
    INDEX 01 01:50:47
  TRACK 97 AUDIO
    TITLE "0:"
    INDEX 01 01:52:53
  TRACK 98 AUDIO
    TITLE "7:cjc057_08665"
    INDEX 01 01:53:57
  TRACK 99 AUDIO
    TITLE "0:"
    INDEX 01 01:54:70
  TRACK 100 AUDIO
    TITLE "8:cjc057_08666"
    INDEX 01 01:55:24
  TRACK 101 AUDIO
    TITLE "0:"
    INDEX 01 01:57:62
  TRACK 102 AUDIO
    TITLE "7:cjc057_08667"
    INDEX 01 01:58:66
  TRACK 103 AUDIO
    TITLE "0:"
    INDEX 01 01:59:67
  TRACK 104 AUDIO
    TITLE "8:cjc057_08668"
    INDEX 01 02:00:22
  TRACK 105 AUDIO
    TITLE "0:"
    INDEX 01 02:01:35
  TRACK 106 AUDIO
    TITLE "7:cjc057_08669"
    INDEX 01 02:02:34
  TRACK 107 AUDIO
    TITLE "0:"
    INDEX 01 02:03:53
  TRACK 108 AUDIO
    TITLE "8:cjc057_08670"
    INDEX 01 02:04:04
  TRACK 109 AUDIO
    TITLE "0:"
    INDEX 01 02:05:01
  TRACK 110 AUDIO
    TITLE "7:cjc057_08671"
    INDEX 01 02:06:05
  TRACK 111 AUDIO
    TITLE "0:"
    INDEX 01 02:07:16
  TRACK 112 AUDIO
    TITLE "8:cjc057_08672"
    INDEX 01 02:07:45
  TRACK 113 AUDIO
    TITLE "0:"
    INDEX 01 02:09:01
